<?xml version="1.0" encoding="UTF-8" standalone="no"?><!DOCTYPE svg PUBLIC "-//W3C//DTD SVG 1.1//EN" "http://www.w3.org/Graphics/SVG/1.1/DTD/svg11.dtd"><svg width="100%" height="100%" viewBox="0 0 512 512" version="1.1" xmlns="http://www.w3.org/2000/svg" xmlns:xlink="http://www.w3.org/1999/xlink" xml:space="preserve" xmlns:serif="http://www.serif.com/" style="fill-rule:evenodd;clip-rule:evenodd;stroke-linejoin:round;stroke-miterlimit:2;"><g id="align-justify"><g id="unerline" transform="matrix(1.98245,0,0,1.65241,-397.607,-205.46)"><path d="M450.758,351.886c0,-8.022 -5.42,-14.524 -12.106,-14.524l-217.912,0c-6.686,0 -12.106,6.502 -12.106,14.524l0,0c0,8.021 5.42,14.524 12.106,14.524l217.912,0c6.686,0 12.106,-6.503 12.106,-14.524l0,0Z" style="fill:#333;"/></g><g id="unerline1" serif:id="unerline" transform="matrix(1.98245,0,0,1.65241,-397.607,-445.46)"><path d="M450.758,351.886c0,-8.022 -5.42,-14.524 -12.106,-14.524l-217.912,0c-6.686,0 -12.106,6.502 -12.106,14.524l0,0c0,8.021 5.42,14.524 12.106,14.524l217.912,0c6.686,0 12.106,-6.503 12.106,-14.524l0,0Z" style="fill:#333;"/></g><g id="unerline2" serif:id="unerline" transform="matrix(1.98245,0,0,1.65241,-397.607,-325.46)"><path d="M450.758,351.886c0,-8.022 -5.42,-14.524 -12.106,-14.524l-217.912,0c-6.686,0 -12.106,6.502 -12.106,14.524l0,0c0,8.021 5.42,14.524 12.106,14.524l217.912,0c6.686,0 12.106,-6.503 12.106,-14.524l0,0Z" style="fill:#0081d5;"/></g></g></svg>