<?xml version="1.0" encoding="UTF-8" standalone="no"?><!DOCTYPE svg PUBLIC "-//W3C//DTD SVG 1.1//EN" "http://www.w3.org/Graphics/SVG/1.1/DTD/svg11.dtd"><svg width="100%" height="100%" viewBox="0 0 512 512" version="1.1" xmlns="http://www.w3.org/2000/svg" xmlns:xlink="http://www.w3.org/1999/xlink" xml:space="preserve" xmlns:serif="http://www.serif.com/" style="fill-rule:evenodd;clip-rule:evenodd;stroke-linejoin:round;stroke-miterlimit:2;"><g id="align-indent"><g id="unerline" transform="matrix(1.18947,0,0,1.65241,-40.1639,-205.46)"><path d="M450.758,351.886c0,-8.022 -9.033,-14.524 -20.177,-14.524l-201.772,0c-5.351,0 -10.482,1.53 -14.266,4.253c-3.784,2.724 -5.909,6.418 -5.909,10.27l0,0.002c0,3.852 2.125,7.546 5.909,10.269c3.784,2.724 8.915,4.254 14.266,4.254l201.772,0c11.144,0 20.177,-6.503 20.177,-14.524l0,0Z" style="fill:#333;"/></g><g id="unerline1" serif:id="unerline" transform="matrix(1.98245,0,0,1.65241,-397.607,-445.46)"><path d="M450.758,351.886c0,-8.022 -5.42,-14.524 -12.106,-14.524l-217.912,0c-6.686,0 -12.106,6.502 -12.106,14.524l0,0c0,8.021 5.42,14.524 12.106,14.524l217.912,0c6.686,0 12.106,-6.503 12.106,-14.524l0,0Z" style="fill:#333;"/></g><g id="unerline2" serif:id="unerline" transform="matrix(1.18947,0,0,1.65241,-40.1639,-325.46)"><path d="M450.758,351.886c0,-8.022 -9.033,-14.524 -20.177,-14.524l-201.77,0c-5.351,0 -10.484,1.53 -14.268,4.254c-3.783,2.723 -5.909,6.418 -5.909,10.27l0,0c0,8.021 9.033,14.524 20.177,14.524l201.77,0c11.144,0 20.177,-6.503 20.177,-14.524l0,0Z" style="fill:#333;"/></g><g transform="matrix(1.0497e-16,1.71429,-1.24465,7.62129e-17,394.374,141.714)"><path d="M97.033,205.933c1.579,-3.157 4.184,-5.042 6.967,-5.042c2.783,0 5.388,1.885 6.967,5.042c10.078,20.156 28.736,57.474 39.904,79.809c1.782,3.564 1.983,8.196 0.521,12.027c-1.462,3.832 -4.345,6.231 -7.488,6.231c-21.273,0 -58.535,0 -79.808,0c-3.143,0 -6.026,-2.399 -7.488,-6.231c-1.462,-3.831 -1.261,-8.463 0.521,-12.027c11.168,-22.335 29.826,-59.653 39.904,-79.809Z" style="fill:#0081d5;"/></g></g></svg>