<?xml version="1.0" encoding="UTF-8" standalone="no"?><!DOCTYPE svg PUBLIC "-//W3C//DTD SVG 1.1//EN" "http://www.w3.org/Graphics/SVG/1.1/DTD/svg11.dtd"><svg width="100%" height="100%" viewBox="0 0 512 512" version="1.1" xmlns="http://www.w3.org/2000/svg" xmlns:xlink="http://www.w3.org/1999/xlink" xml:space="preserve" xmlns:serif="http://www.serif.com/" style="fill-rule:evenodd;clip-rule:evenodd;stroke-linecap:round;stroke-linejoin:round;stroke-miterlimit:1.5;"><g id="arrow"><g id="unerline" transform="matrix(1.71813,-1.22125e-15,0,1.65241,-310.459,-325.46)"><path d="M450.758,351.885c0,-8.021 -6.253,-14.523 -13.967,-14.523l-214.19,0c-7.714,0 -13.967,6.502 -13.967,14.523l0,0.002c0,8.021 6.253,14.523 13.967,14.523l214.19,0c7.714,0 13.967,-6.502 13.967,-14.523l0,-0.002Z" style="fill:#333;"/></g><g transform="matrix(0.407568,0.407568,0.407568,-0.407568,26.9578,256)"><path d="M16,160l0,-144l144,0" style="fill:none;stroke:#0081d5;stroke-width:69.4px;"/></g><g transform="matrix(-0.407568,0.407568,-0.407568,-0.407568,485.042,256)"><path d="M16,160l0,-144l144,0" style="fill:none;stroke:#0081d5;stroke-width:69.4px;"/></g></g></svg>