<?xml version="1.0" encoding="UTF-8" standalone="no"?><!DOCTYPE svg PUBLIC "-//W3C//DTD SVG 1.1//EN" "http://www.w3.org/Graphics/SVG/1.1/DTD/svg11.dtd"><svg width="100%" height="100%" viewBox="0 0 512 512" version="1.1" xmlns="http://www.w3.org/2000/svg" xmlns:xlink="http://www.w3.org/1999/xlink" xml:space="preserve" xmlns:serif="http://www.serif.com/" style="fill-rule:evenodd;clip-rule:evenodd;stroke-linejoin:round;stroke-miterlimit:2;"><g id="bold" transform="matrix(707.965,0,0,707.965,8.58497,496)"><path d="M0.146,0c-0.028,0 -0.042,-0.014 -0.042,-0.042l0,-0.594c0,-0.028 0.014,-0.042 0.042,-0.042l0.261,0c0.053,0 0.094,0.014 0.122,0.042c0.029,0.028 0.043,0.068 0.043,0.12l0,0.027c0,0.045 -0.014,0.08 -0.043,0.104c0.053,0.03 0.08,0.084 0.08,0.163l0,0.034c0,0.061 -0.016,0.108 -0.049,0.14c-0.032,0.032 -0.079,0.048 -0.14,0.048l-0.274,0Zm0.042,-0.084l0.232,0c0.038,0 0.065,-0.008 0.081,-0.024c0.016,-0.016 0.024,-0.043 0.024,-0.08l0,-0.034c0,-0.037 -0.008,-0.063 -0.023,-0.079c-0.016,-0.016 -0.043,-0.024 -0.082,-0.024l-0.232,0l0,0.241Zm0,-0.325l0.237,0c0.024,0 0.041,-0.007 0.05,-0.022c0.009,-0.015 0.013,-0.035 0.013,-0.058l0,-0.027c0,-0.029 -0.006,-0.049 -0.018,-0.061c-0.012,-0.011 -0.033,-0.017 -0.063,-0.017l-0.219,0l0,0.185Z" style="fill:#333;fill-rule:nonzero;"/></g></svg>