<?xml version="1.0" encoding="UTF-8" standalone="no"?><!DOCTYPE svg PUBLIC "-//W3C//DTD SVG 1.1//EN" "http://www.w3.org/Graphics/SVG/1.1/DTD/svg11.dtd"><svg width="100%" height="100%" viewBox="0 0 512 512" version="1.1" xmlns="http://www.w3.org/2000/svg" xmlns:xlink="http://www.w3.org/1999/xlink" xml:space="preserve" xmlns:serif="http://www.serif.com/" style="fill-rule:evenodd;clip-rule:evenodd;stroke-linejoin:round;stroke-miterlimit:2;"><g id="image"><g transform="matrix(0.392599,0,0,0.392599,51.4442,32.9445)"><path d="M820.368,440.468c-52.929,0 -95.881,-39.514 -95.881,-88.443c0,-48.886 42.952,-88.471 95.881,-88.471c52.954,0 95.854,39.585 95.854,88.471c0,48.929 -42.9,88.443 -95.854,88.443Zm53.029,339.89c44.632,66.083 12.097,51.895 -72.212,51.895l-575.255,0c-84.408,0 -124.269,10.518 -88.503,-59.983l138.687,-274.308c35.672,-70.525 103.152,-75.215 149.939,-10.499l136.658,189.224l38.177,-75.31c35.724,-70.501 101.477,-74.144 146.136,-8.088l126.373,187.069Z" style="fill:#0081d5;"/></g><path id="unerline" d="M496,104c0,-10.609 -4.214,-20.783 -11.716,-28.284c-7.501,-7.502 -17.675,-11.716 -28.284,-11.716c-90.399,0 -309.601,0 -400,0c-10.609,0 -20.783,4.214 -28.284,11.716c-7.502,7.501 -11.716,17.675 -11.716,28.284c0,73.733 0,230.267 0,304c0,10.609 4.214,20.783 11.716,28.284c7.501,7.502 17.675,11.716 28.284,11.716c90.399,0 309.601,0 400,0c10.609,0 20.783,-4.214 28.284,-11.716c7.502,-7.501 11.716,-17.675 11.716,-28.284c0,-73.733 0,-230.267 0,-304Zm-32,8c0,-4.243 -1.686,-8.313 -4.686,-11.314c-3.001,-3 -7.071,-4.686 -11.314,-4.686c-66.144,0 -317.856,0 -384,0c-4.243,0 -8.313,1.686 -11.314,4.686c-3,3.001 -4.686,7.071 -4.686,11.314c0,54.624 0,233.376 0,288c0,4.243 1.686,8.313 4.686,11.314c3.001,3 7.071,4.686 11.314,4.686c66.144,0 317.856,0 384,0c4.243,0 8.313,-1.686 11.314,-4.686c3,-3.001 4.686,-7.071 4.686,-11.314c0,-54.624 0,-233.376 0,-288Z" style="fill:#333;"/></g></svg>