<?xml version="1.0" encoding="UTF-8" standalone="no"?><!DOCTYPE svg PUBLIC "-//W3C//DTD SVG 1.1//EN" "http://www.w3.org/Graphics/SVG/1.1/DTD/svg11.dtd"><svg width="100%" height="100%" viewBox="0 0 512 512" version="1.1" xmlns="http://www.w3.org/2000/svg" xmlns:xlink="http://www.w3.org/1999/xlink" xml:space="preserve" xmlns:serif="http://www.serif.com/" style="fill-rule:evenodd;clip-rule:evenodd;stroke-linejoin:round;stroke-miterlimit:2;"><g id="image-right"><g id="unerline" transform="matrix(1.98245,0,0,2.20321,-397.607,-375.279)"><path d="M450.758,351.885c0,-8.021 -7.226,-14.523 -16.14,-14.523c-44.024,0 -165.821,0 -209.844,0c-8.914,0 -16.14,6.502 -16.14,14.523c0,0 0,0.001 0,0.002c0,8.021 7.226,14.523 16.14,14.523c44.023,0 165.82,0 209.844,0c8.914,0 16.14,-6.502 16.14,-14.523c0,-0.001 0,-0.002 0,-0.002Z" style="fill:#333;"/></g><g id="unerline1" serif:id="unerline" transform="matrix(0.859063,0,0,2.20321,-163.229,-663.279)"><path d="M450.758,351.885c0,-8.021 -16.676,-14.523 -37.247,-14.523c-45.526,0 -122.104,0 -167.63,0c-20.571,0 -37.247,6.502 -37.247,14.523c0,0 0,0.001 0,0.002c0,8.021 16.676,14.523 37.247,14.523c45.526,0 122.104,0 167.63,0c20.571,0 37.247,-6.502 37.247,-14.523c0,-0.001 0,-0.002 0,-0.002Z" style="fill:#333;"/></g><g id="unerline2" serif:id="unerline" transform="matrix(0.859063,0,0,2.20321,-163.229,-519.279)"><path d="M450.758,351.885c0,-8.021 -16.676,-14.523 -37.247,-14.523c-45.526,0 -122.104,0 -167.63,0c-20.571,0 -37.247,6.502 -37.247,14.523c0,0 0,0.001 0,0.002c0,8.021 16.676,14.523 37.247,14.523c45.526,0 122.104,0 167.63,0c20.571,0 37.247,-6.502 37.247,-14.523c0,-0.001 0,-0.002 0,-0.002Z" style="fill:#333;"/></g><g id="unerline3" serif:id="unerline" transform="matrix(0.859063,0,0,7.16044,108.771,-2335.66)"><path d="M450.758,342.948c0,-3.085 -20.847,-5.586 -46.562,-5.586l-149,0c-25.716,0 -46.562,2.501 -46.562,5.586l0,17.876c0,3.085 20.846,5.586 46.562,5.586l149,0c25.715,0 46.562,-2.501 46.562,-5.586l0,-17.876Z" style="fill:#0081d5;"/></g></g></svg>