<?xml version="1.0" encoding="UTF-8" standalone="no"?><!DOCTYPE svg PUBLIC "-//W3C//DTD SVG 1.1//EN" "http://www.w3.org/Graphics/SVG/1.1/DTD/svg11.dtd"><svg width="100%" height="100%" viewBox="0 0 512 512" version="1.1" xmlns="http://www.w3.org/2000/svg" xmlns:xlink="http://www.w3.org/1999/xlink" xml:space="preserve" xmlns:serif="http://www.serif.com/" style="fill-rule:evenodd;clip-rule:evenodd;stroke-linejoin:round;stroke-miterlimit:2;"><g id="image-center"><g id="unerline" transform="matrix(1.98245,0,0,2.20321,-397.607,-375.279)"><path d="M450.758,351.885c0,-8.021 -7.226,-14.523 -16.14,-14.523c-44.024,0 -165.821,0 -209.844,0c-8.914,0 -16.14,6.502 -16.14,14.523c0,0 0,0.001 0,0.002c0,8.021 7.226,14.523 16.14,14.523c44.023,0 165.82,0 209.844,0c8.914,0 16.14,-6.502 16.14,-14.523c0,-0.001 0,-0.002 0,-0.002Z" style="fill:#333;"/></g><g id="unerline1" serif:id="unerline" transform="matrix(1.98245,0,0,2.20321,-397.607,-663.279)"><path d="M450.758,351.885c0,-8.021 -7.226,-14.523 -16.14,-14.523c-44.024,0 -165.821,0 -209.844,0c-8.914,0 -16.14,6.502 -16.14,14.523c0,0 0,0.001 0,0.002c0,8.021 7.226,14.523 16.14,14.523c44.023,0 165.82,0 209.844,0c8.914,0 16.14,-6.502 16.14,-14.523c0,-0.001 0,-0.002 0,-0.002Z" style="fill:#333;"/></g><g id="unerline2" serif:id="unerline" transform="matrix(0.925144,0,0,4.40643,-49.0164,-1294.56)"><path d="M450.758,346.439c0,-2.407 -4.555,-4.716 -12.664,-6.419c-8.108,-1.702 -19.105,-2.658 -30.572,-2.658l-155.652,0c-11.467,0 -22.464,0.956 -30.573,2.658c-8.108,1.703 -12.663,4.012 -12.663,6.419l0,10.893c0,2.408 4.555,4.717 12.663,6.419c8.109,1.703 19.106,2.659 30.573,2.659l155.652,0c11.467,0 22.464,-0.956 30.572,-2.659c8.109,-1.702 12.664,-4.011 12.664,-6.419l0,-10.893Z" style="fill:#0081d5;"/></g></g></svg>