<?xml version="1.0" encoding="UTF-8" standalone="no"?><!DOCTYPE svg PUBLIC "-//W3C//DTD SVG 1.1//EN" "http://www.w3.org/Graphics/SVG/1.1/DTD/svg11.dtd"><svg width="100%" height="100%" viewBox="0 0 512 512" version="1.1" xmlns="http://www.w3.org/2000/svg" xmlns:xlink="http://www.w3.org/1999/xlink" xml:space="preserve" xmlns:serif="http://www.serif.com/" style="fill-rule:evenodd;clip-rule:evenodd;stroke-linejoin:round;stroke-miterlimit:2;"><g id="italic" transform="matrix(0.916667,0,0,0.916667,21.3333,21.3333)"><path d="M313.744,71.489l-60,369.022l68.154,0c9.248,0 16.184,2.312 20.808,6.936c4.624,4.624 6.936,11.56 6.936,20.809c0,9.248 -2.312,16.184 -6.936,20.808c-4.624,4.624 -11.56,6.936 -20.808,6.936l-191.796,0c-9.248,0 -16.184,-2.312 -20.808,-6.936c-4.624,-4.624 -6.936,-11.56 -6.936,-20.808c0,-9.249 2.312,-16.185 6.936,-20.809c4.624,-4.624 11.56,-6.936 20.808,-6.936l68.154,0l60,-369.022l-68.154,0c-9.248,0 -16.184,-2.312 -20.808,-6.936c-4.624,-4.624 -6.936,-11.56 -6.936,-20.809c0,-9.248 2.312,-16.184 6.936,-20.808c4.624,-4.624 11.56,-6.936 20.808,-6.936l191.796,0c9.248,0 16.184,2.312 20.808,6.936c4.624,4.624 6.936,11.56 6.936,20.808c0,9.249 -2.312,16.185 -6.936,20.809c-4.624,4.624 -11.56,6.936 -20.808,6.936l-68.154,0Z" style="fill:#333;fill-rule:nonzero;"/></g></svg>