<?xml version="1.0" encoding="UTF-8" standalone="no"?><!DOCTYPE svg PUBLIC "-//W3C//DTD SVG 1.1//EN" "http://www.w3.org/Graphics/SVG/1.1/DTD/svg11.dtd"><svg width="100%" height="100%" viewBox="0 0 512 512" version="1.1" xmlns="http://www.w3.org/2000/svg" xmlns:xlink="http://www.w3.org/1999/xlink" xml:space="preserve" xmlns:serif="http://www.serif.com/" style="fill-rule:evenodd;clip-rule:evenodd;stroke-linejoin:round;stroke-miterlimit:2;"><g id="link-broken" serif:id="link broken" transform="matrix(0.729344,-0.729344,0.729344,0.729344,-117.425,256)"><g id="unerline" transform="matrix(0,0.59262,-1.60203,0,820.049,-187.386)"><path d="M450.758,351.885c0,-3.852 -4.136,-7.546 -11.499,-10.27c-7.363,-2.723 -17.349,-4.253 -27.761,-4.253c-45.064,0 -118.541,0 -163.604,0c-10.412,0 -20.398,1.53 -27.761,4.253c-7.363,2.724 -11.499,6.418 -11.499,10.27c0,0 0,0.001 0,0.002c0,3.852 4.136,7.546 11.499,10.269c7.363,2.724 17.349,4.254 27.761,4.254c45.063,0 118.54,0 163.604,0c10.412,0 20.398,-1.53 27.761,-4.254c7.363,-2.723 11.499,-6.417 11.499,-10.269c0,-0.001 0,-0.002 0,-0.002Z" style="fill:#0081d5;"/></g><g id="unerline1" serif:id="unerline" transform="matrix(0,0.59262,-1.60203,0,819.415,308.612)"><path d="M450.758,351.886c0,-8.022 -17.579,-14.524 -39.263,-14.524c-45.063,0 -118.535,0 -163.598,0c-21.684,0 -39.263,6.502 -39.263,14.524c0,0 0,0 0,0c0,8.021 17.579,14.524 39.263,14.524l163.601,0c10.412,0 20.398,-1.53 27.761,-4.254c7.363,-2.723 11.499,-6.417 11.499,-10.269c0,0 0,-0.001 0,-0.001Z" style="fill:#0081d5;"/></g><g transform="matrix(0.969511,0,0,0.969511,-23.2187,7.80566)"><path d="M256,136.002c0,13.254 -10.744,23.998 -23.998,23.998c-21.796,0 -39.425,0 -72.002,0c-53.019,0 -96,42.981 -96,96l0,0c0,53.019 42.981,96 96,96c32.576,0 50.204,0 72,0c13.255,0 24,10.745 24,24c0,0 0,0 0,0c0,6.365 -2.529,12.47 -7.029,16.971c-4.501,4.5 -10.606,7.029 -16.971,7.029c-21.13,0 -37.791,0 -72,0c-38.191,0 -74.818,-15.171 -101.823,-42.177c-27.006,-27.005 -42.177,-63.632 -42.177,-101.823l0,0c0,-79.529 64.471,-144 144,-144c34.209,0 50.87,0 72,0c6.365,0 12.47,2.529 16.971,7.029c4.5,4.501 7.029,10.606 7.029,16.971c0,0.001 0,0.001 0,0.002Z" style="fill:#333;"/></g><g transform="matrix(-0.969511,1.18731e-16,-1.18731e-16,-0.969511,535.22,504.195)"><path d="M256,136.002c0,13.254 -10.744,23.998 -23.998,23.998l-72.002,0c-53.019,0 -96,42.981 -96,96l0,0c0,53.019 42.981,96 96,96c32.576,0 50.204,0 72,0c13.255,0 24,10.745 24,24c0,0 0,0 0,0c0,6.365 -2.529,12.47 -7.029,16.971c-4.501,4.5 -10.606,7.029 -16.971,7.029c-21.13,0 -37.791,0 -72,0c-38.191,0 -74.818,-15.171 -101.823,-42.177c-27.006,-27.005 -42.177,-63.632 -42.177,-101.823l0,0c0,-79.529 64.471,-144 144,-144c34.209,0 50.87,0 72,0c6.365,0 12.47,2.529 16.971,7.029c4.5,4.501 7.029,10.606 7.029,16.971c0,0.001 0,0.001 0,0.002Z" style="fill:#333;"/></g></g></svg>