<?xml version="1.0" encoding="UTF-8" standalone="no"?><!DOCTYPE svg PUBLIC "-//W3C//DTD SVG 1.1//EN" "http://www.w3.org/Graphics/SVG/1.1/DTD/svg11.dtd"><svg width="100%" height="100%" viewBox="0 0 512 512" version="1.1" xmlns="http://www.w3.org/2000/svg" xmlns:xlink="http://www.w3.org/1999/xlink" xml:space="preserve" xmlns:serif="http://www.serif.com/" style="fill-rule:evenodd;clip-rule:evenodd;stroke-linejoin:round;stroke-miterlimit:2;"><g id="link" transform="matrix(0.729344,-0.729344,0.729344,0.729344,-117.425,256)"><g id="unerline" transform="matrix(1.02507,0,0,1.60203,-81.9615,-307.731)"><path d="M450.758,351.886c0,-3.852 -2.391,-7.547 -6.648,-10.27c-4.257,-2.724 -10.031,-4.254 -16.051,-4.254c-46.173,0 -150.557,0 -196.728,0c-6.02,0 -11.793,1.53 -16.049,4.253c-4.257,2.724 -6.648,6.418 -6.648,10.27c0,0 0,0.001 0,0.002c0,3.852 2.391,7.546 6.648,10.269c4.256,2.724 10.029,4.254 16.049,4.254c46.172,0 150.558,0 196.73,0c6.02,0 11.793,-1.53 16.049,-4.254c4.257,-2.723 6.648,-6.417 6.648,-10.269c0,0 0,-0.001 0,-0.001Z" style="fill:#0081d5;"/></g><g transform="matrix(0.969511,0,0,0.969511,-23.2187,7.80566)"><path d="M256,136.002c0,13.254 -10.744,23.998 -23.998,23.998c-21.796,0 -39.425,0 -72.002,0c-53.019,0 -96,42.981 -96,96l0,0c0,53.019 42.981,96 96,96c32.576,0 50.204,0 72,0c13.255,0 24,10.745 24,24c0,0 0,0 0,0c0,6.365 -2.529,12.47 -7.029,16.971c-4.501,4.5 -10.606,7.029 -16.971,7.029c-21.13,0 -37.791,0 -72,0c-38.191,0 -74.818,-15.171 -101.823,-42.177c-27.006,-27.005 -42.177,-63.632 -42.177,-101.823l0,0c0,-79.529 64.471,-144 144,-144c34.209,0 50.87,0 72,0c6.365,0 12.47,2.529 16.971,7.029c4.5,4.501 7.029,10.606 7.029,16.971c0,0.001 0,0.001 0,0.002Z" style="fill:#333;"/></g><g transform="matrix(-0.969511,1.18731e-16,-1.18731e-16,-0.969511,535.22,504.195)"><path d="M256,136.002c0,13.254 -10.744,23.998 -23.998,23.998l-72.002,0c-53.019,0 -96,42.981 -96,96l0,0c0,53.019 42.981,96 96,96c32.576,0 50.204,0 72,0c13.255,0 24,10.745 24,24c0,0 0,0 0,0c0,6.365 -2.529,12.47 -7.029,16.971c-4.501,4.5 -10.606,7.029 -16.971,7.029c-21.13,0 -37.791,0 -72,0c-38.191,0 -74.818,-15.171 -101.823,-42.177c-27.006,-27.005 -42.177,-63.632 -42.177,-101.823l0,0c0,-79.529 64.471,-144 144,-144c34.209,0 50.87,0 72,0c6.365,0 12.47,2.529 16.971,7.029c4.5,4.501 7.029,10.606 7.029,16.971c0,0.001 0,0.001 0,0.002Z" style="fill:#333;"/></g></g></svg>