<?xml version="1.0" encoding="UTF-8" standalone="no"?><!DOCTYPE svg PUBLIC "-//W3C//DTD SVG 1.1//EN" "http://www.w3.org/Graphics/SVG/1.1/DTD/svg11.dtd"><svg width="100%" height="100%" viewBox="0 0 512 512" version="1.1" xmlns="http://www.w3.org/2000/svg" xmlns:xlink="http://www.w3.org/1999/xlink" xml:space="preserve" xmlns:serif="http://www.serif.com/" style="fill-rule:evenodd;clip-rule:evenodd;stroke-linejoin:round;stroke-miterlimit:2;"><g id="palette"><g transform="matrix(0.850161,0,0,0.850161,37.0977,37.1381)"><path d="M204.3,5c-99.4,19.4 -179.5,99.3 -199.1,198.4c-37,187 131.7,326.4 258.8,306.7c41.2,-6.4 61.4,-54.6 42.5,-91.7c-23.1,-45.4 9.9,-98.4 60.9,-98.4l79.7,0c35.8,0 64.8,-29.6 64.9,-65.3c-0.5,-157.6 -143.9,-281.6 -307.7,-249.7Z" style="fill:none;fill-rule:nonzero;stroke:#333;stroke-width:47.05px;"/></g><g transform="matrix(0.627397,0,0,0.627397,123.31,-2.49855)"><circle cx="288" cy="208" r="51.004" style="fill:#0081d5;"/></g><g transform="matrix(0.627397,0,0,0.627397,11.3097,13.5014)"><circle cx="288" cy="208" r="51.004" style="fill:#0081d5;"/></g><g transform="matrix(0.627397,0,0,0.627397,-52.6903,105.106)"><circle cx="288" cy="208" r="51.004" style="fill:#0081d5;"/></g><g transform="matrix(0.627397,0,0,0.627397,-20.6903,205.501)"><circle cx="288" cy="208" r="51.004" style="fill:#0081d5;"/></g></g></svg>