<?xml version="1.0" encoding="UTF-8" standalone="no"?><!DOCTYPE svg PUBLIC "-//W3C//DTD SVG 1.1//EN" "http://www.w3.org/Graphics/SVG/1.1/DTD/svg11.dtd"><svg width="100%" height="100%" viewBox="0 0 512 512" version="1.1" xmlns="http://www.w3.org/2000/svg" xmlns:xlink="http://www.w3.org/1999/xlink" xml:space="preserve" xmlns:serif="http://www.serif.com/" style="fill-rule:evenodd;clip-rule:evenodd;stroke-linejoin:round;stroke-miterlimit:2;"><g id="pencil"><g transform="matrix(0.937437,0,0,0.937437,15.9778,15.9811)"><path d="M284.2,99.8l-262.6,262.6l-21.2,121.5c-2.9,16.4 11.4,30.6 27.8,27.8l121.5,-21.3l262.6,-262.6c4.7,-4.7 4.7,-12.3 0,-17l-111,-111c-4.8,-4.7 -12.4,-4.7 -17.1,0Zm-160.1,240.1c-5.5,-5.5 -5.5,-14.3 0,-19.8l154,-154c5.5,-5.5 14.3,-5.5 19.8,0c5.5,5.5 5.5,14.3 0,19.8l-154,154c-5.5,5.5 -14.3,5.5 -19.8,0Zm-36.1,84.1l48,0l0,36.3l-64.5,11.3l-31.1,-31.1l11.3,-64.5l36.3,0l0,48Z" style="fill:#333;fill-rule:nonzero;"/></g><g transform="matrix(0.937437,0,0,0.937437,15.9778,15.9811)"><path d="M497.9,142.1l-46.1,46.1c-4.7,4.7 -12.3,4.7 -17,0l-111,-111c-4.7,-4.7 -4.7,-12.3 0,-17l46.1,-46.1c18.7,-18.7 49.1,-18.7 67.9,0l60.1,60.1c18.8,18.7 18.8,49.1 0,67.9Z" style="fill:#0081d5;fill-rule:nonzero;"/></g></g></svg>