<?xml version="1.0" encoding="UTF-8" standalone="no"?><!DOCTYPE svg PUBLIC "-//W3C//DTD SVG 1.1//EN" "http://www.w3.org/Graphics/SVG/1.1/DTD/svg11.dtd"><svg width="100%" height="100%" viewBox="0 0 512 512" version="1.1" xmlns="http://www.w3.org/2000/svg" xmlns:xlink="http://www.w3.org/1999/xlink" xml:space="preserve" xmlns:serif="http://www.serif.com/" style="fill-rule:evenodd;clip-rule:evenodd;stroke-linecap:round;stroke-linejoin:round;stroke-miterlimit:1.5;"><g id="rollback"><g transform="matrix(0.454545,0,0,0.454545,176,139.636)"><path d="M242.72,256l100.07,-100.07c12.28,-12.28 12.28,-32.19 0,-44.48l-22.24,-22.24c-12.28,-12.28 -32.19,-12.28 -44.48,0l-100.07,100.07l-100.07,-100.07c-12.28,-12.28 -32.19,-12.28 -44.48,0l-22.24,22.24c-12.28,12.28 -12.28,32.19 0,44.48l100.07,100.07l-100.07,100.07c-12.28,12.28 -12.28,32.19 0,44.48l22.24,22.24c12.28,12.28 32.2,12.28 44.48,0l100.07,-100.07l100.07,100.07c12.28,12.28 32.2,12.28 44.48,0l22.24,-22.24c12.28,-12.28 12.28,-32.19 0,-44.48l-100.07,-100.07Z" style="fill:#c33;fill-rule:nonzero;"/></g><g transform="matrix(0.576389,-5.25895e-17,-5.25895e-17,-0.576389,68.7778,141.222)"><path d="M16,160l0,-144l144,0" style="fill:none;stroke:#333;stroke-width:69.4px;"/></g><path d="M83.192,119.9c40.301,-51.085 102.753,-83.9 172.808,-83.9c121.421,0 220,98.579 220,220c0,121.421 -98.579,220 -220,220c-49.489,0 -95.183,-16.376 -131.955,-44" style="fill:none;stroke:#333;stroke-width:40px;"/></g></svg>