<?xml version="1.0" encoding="UTF-8" standalone="no"?><!DOCTYPE svg PUBLIC "-//W3C//DTD SVG 1.1//EN" "http://www.w3.org/Graphics/SVG/1.1/DTD/svg11.dtd"><svg width="100%" height="100%" viewBox="0 0 512 512" version="1.1" xmlns="http://www.w3.org/2000/svg" xmlns:xlink="http://www.w3.org/1999/xlink" xml:space="preserve" xmlns:serif="http://www.serif.com/" style="fill-rule:evenodd;clip-rule:evenodd;stroke-linejoin:round;stroke-miterlimit:2;"><g id="strikethrough"><g id="bold" transform="matrix(5.10747,0,0,5.10747,-1728.35,-1925.16)"><g transform="matrix(103.602,0,0,103.602,352.638,462.174)"><path d="M0.274,0c-0.058,0 -0.102,-0.012 -0.134,-0.035c-0.032,-0.023 -0.052,-0.058 -0.06,-0.106c-0.001,-0.015 0.002,-0.026 0.009,-0.033c0.008,-0.007 0.018,-0.011 0.032,-0.011c0.014,0 0.025,0.003 0.031,0.01c0.007,0.007 0.011,0.017 0.013,0.031c0.005,0.023 0.016,0.039 0.033,0.047c0.016,0.009 0.041,0.013 0.075,0.013l0.144,0c0.043,0 0.073,-0.008 0.088,-0.023c0.016,-0.016 0.023,-0.045 0.023,-0.087c0,-0.043 -0.008,-0.072 -0.024,-0.088c-0.016,-0.016 -0.044,-0.024 -0.087,-0.024l-0.124,0c-0.062,0 -0.109,-0.015 -0.14,-0.046c-0.03,-0.031 -0.045,-0.078 -0.045,-0.141c0,-0.063 0.015,-0.109 0.045,-0.139c0.03,-0.031 0.077,-0.046 0.14,-0.046l0.118,0c0.054,0 0.095,0.011 0.125,0.033c0.03,0.021 0.049,0.054 0.057,0.099c0.002,0.014 0,0.025 -0.008,0.033c-0.007,0.007 -0.018,0.011 -0.033,0.011c-0.013,0 -0.023,-0.003 -0.03,-0.01c-0.006,-0.007 -0.011,-0.018 -0.013,-0.031c-0.005,-0.02 -0.015,-0.033 -0.03,-0.04c-0.015,-0.007 -0.037,-0.011 -0.068,-0.011l-0.118,0c-0.04,0 -0.067,0.007 -0.081,0.021c-0.014,0.014 -0.02,0.041 -0.02,0.08c0,0.039 0.007,0.066 0.021,0.081c0.014,0.015 0.041,0.022 0.081,0.022l0.124,0c0.065,0 0.114,0.016 0.146,0.048c0.032,0.032 0.049,0.081 0.049,0.148c0,0.066 -0.016,0.115 -0.048,0.147c-0.032,0.031 -0.081,0.047 -0.147,0.047l-0.144,0Z" style="fill:#333;fill-rule:nonzero;"/></g></g><g id="unerline" transform="matrix(1.98245,0,0,1.54913,-397.607,-289.118)"><path d="M450.758,351.886c0,-3.852 -1.196,-7.547 -3.324,-10.27c-2.129,-2.724 -5.015,-4.254 -8.025,-4.254l-219.426,0c-3.01,0 -5.897,1.53 -8.025,4.254c-2.128,2.723 -3.324,6.418 -3.324,10.27l0,0c0,3.852 1.196,7.546 3.324,10.27c2.128,2.724 5.015,4.254 8.025,4.254l219.426,0c3.01,0 5.896,-1.53 8.025,-4.254c2.128,-2.724 3.324,-6.418 3.324,-10.27l0,0Z" style="fill:#0081d5;"/></g></g></svg>