<?xml version="1.0" encoding="UTF-8" standalone="no"?><!DOCTYPE svg PUBLIC "-//W3C//DTD SVG 1.1//EN" "http://www.w3.org/Graphics/SVG/1.1/DTD/svg11.dtd"><svg width="100%" height="100%" viewBox="0 0 512 512" version="1.1" xmlns="http://www.w3.org/2000/svg" xmlns:xlink="http://www.w3.org/1999/xlink" xml:space="preserve" xmlns:serif="http://www.serif.com/" style="fill-rule:evenodd;clip-rule:evenodd;stroke-linejoin:round;stroke-miterlimit:2;"><g id="style"><g transform="matrix(0.937495,0,0,0.937495,16,16.0023)"><path d="M497.94,74.17l-60.11,-60.11c-18.75,-18.75 -49.16,-18.75 -67.91,0l-56.55,56.55l128.02,128.02l56.55,-56.55c18.75,-18.75 18.75,-49.15 0,-67.91Z" style="fill:#0081d5;fill-rule:nonzero;"/></g><g transform="matrix(0.937495,0,0,0.937495,16,16.0023)"><path d="M136.6,138.79c-20.373,5.758 -36.615,21.265 -43.31,41.35l-93.29,279.86l14.69,14.69l150.11,-150.11c-2.99,-6.26 -4.8,-13.18 -4.8,-20.58c0,-26.51 21.49,-48 48,-48c26.51,0 48,21.49 48,48c0,26.51 -21.49,48 -48,48c-7.4,0 -14.32,-1.81 -20.58,-4.8l-150.11,150.11l14.69,14.69l279.86,-93.29c20.085,-6.695 35.592,-22.937 41.35,-43.31l42.79,-151.4l-128,-128l-151.4,42.79Z" style="fill:#333;fill-rule:nonzero;"/></g></g></svg>