<?xml version="1.0" encoding="UTF-8" standalone="no"?><!DOCTYPE svg PUBLIC "-//W3C//DTD SVG 1.1//EN" "http://www.w3.org/Graphics/SVG/1.1/DTD/svg11.dtd"><svg width="100%" height="100%" viewBox="0 0 512 512" version="1.1" xmlns="http://www.w3.org/2000/svg" xmlns:xlink="http://www.w3.org/1999/xlink" xml:space="preserve" xmlns:serif="http://www.serif.com/" style="fill-rule:evenodd;clip-rule:evenodd;stroke-linejoin:round;stroke-miterlimit:2;"><g id="subscript"><g id="bold" transform="matrix(1,0,0,1,2.35048,335.529)"><path d="M426.263,129.896l50.616,0c5.013,0 8.637,1.637 11.144,4.143c2.506,2.507 4.143,6.131 4.143,11.144c0,5.013 -1.637,8.638 -4.143,11.144c-2.507,2.507 -6.131,4.144 -11.144,4.144l-69.346,0c-5.046,0 -8.698,-1.618 -11.221,-4.082c-2.58,-2.521 -4.252,-6.164 -4.252,-11.206c0,-9.491 1.59,-17.567 4.6,-24.26c3.031,-6.739 6.94,-12.429 11.682,-17.101c4.539,-4.47 9.372,-8.254 14.491,-11.359c4.685,-2.842 9.026,-5.418 13.075,-7.759c6.765,-3.84 12.418,-7.161 16.959,-9.964c3.688,-2.277 6.505,-4.536 8.337,-6.912c1.315,-1.706 1.87,-3.816 1.87,-6.268c0,-2.911 -0.215,-5.353 -0.735,-7.316c-0.246,-0.932 -0.451,-1.716 -0.944,-2.198c-0.521,-0.508 -1.34,-0.739 -2.316,-0.993c-1.953,-0.508 -4.366,-0.72 -7.232,-0.72l-19.839,0c-4.147,0 -7.259,0.271 -9.245,1.374c-1.018,0.566 -1.269,1.829 -1.538,3.358c-0.737,4.208 -2.356,7.326 -4.46,9.535c-2.456,2.578 -6.052,4.274 -11.087,4.274c-4.994,0 -8.679,-1.666 -11.295,-4.342c-2.719,-2.78 -4.269,-6.698 -3.774,-12.011c0.012,-0.137 0.029,-0.273 0.049,-0.41c1.627,-10.925 6.151,-18.961 13.125,-24.346c6.66,-5.143 16.014,-8.007 28.225,-8.007l19.839,0c14.065,0 24.361,3.825 31.169,10.633c6.808,6.808 10.634,17.104 10.634,31.169c0,9.202 -2.397,16.849 -6.921,23.022c-4.161,5.677 -9.603,10.709 -16.373,15.046c-6.047,3.873 -12.534,7.763 -19.406,11.636c-4.832,2.778 -9.407,5.556 -13.726,8.335c-3.744,2.409 -6.946,5.201 -9.591,8.395c-0.496,0.6 -0.953,1.233 -1.37,1.902Z" style="fill:#0081d5;fill-rule:nonzero;"/></g><g id="bold1" serif:id="bold" transform="matrix(5.10747,0,0,5.10747,-1751.47,-1925.16)"><g transform="matrix(103.602,0,0,103.602,352.638,462.174)"><path d="M0.086,-0.009c-0.022,-0.015 -0.026,-0.035 -0.01,-0.059l0.183,-0.27l-0.193,-0.272c-0.015,-0.022 -0.011,-0.042 0.011,-0.059c0.023,-0.016 0.042,-0.012 0.058,0.011l0.179,0.251l0.18,-0.251c0.017,-0.022 0.037,-0.025 0.058,-0.009c0.023,0.017 0.026,0.036 0.01,0.058l-0.197,0.274l0.189,0.266c0.016,0.023 0.012,0.043 -0.011,0.06c-0.023,0.016 -0.042,0.012 -0.058,-0.011l-0.174,-0.245l-0.166,0.246c-0.015,0.022 -0.035,0.025 -0.059,0.01Z" style="fill:#333;fill-rule:nonzero;"/></g></g></g></svg>