<?xml version="1.0" encoding="UTF-8" standalone="no"?><!DOCTYPE svg PUBLIC "-//W3C//DTD SVG 1.1//EN" "http://www.w3.org/Graphics/SVG/1.1/DTD/svg11.dtd"><svg width="100%" height="100%" viewBox="0 0 512 512" version="1.1" xmlns="http://www.w3.org/2000/svg" xmlns:xlink="http://www.w3.org/1999/xlink" xml:space="preserve" xmlns:serif="http://www.serif.com/" style="fill-rule:evenodd;clip-rule:evenodd;stroke-linejoin:round;stroke-miterlimit:2;"><g transform="matrix(0.356036,0,0,0.356036,73.7098,73.7098)"><g id="summernote"><path d="M1122.03,577.898l-88.591,0c3.008,-20.122 4.717,-42.619 4.717,-66.15c0,-23.012 -1.648,-44.522 -4.525,-64.644l88.399,0c35.312,0 64.057,30.085 64.057,65.397c0,35.312 -28.745,65.397 -64.057,65.397Zm-192.866,-386c-28.003,-36.409 -60.644,-69.05 -97.054,-97.055l62.724,-62.723c12.914,-12.914 30.148,-20.027 48.526,-20.027c18.38,0 35.613,7.113 48.528,20.027c12.916,12.915 20.028,30.149 20.028,48.527c0,18.38 -7.112,35.614 -20.028,48.529l-62.724,62.722Zm-539.028,428.487c-3.634,11.019 2.45,17.102 13.468,13.506l138.187,-45.112l358.882,-358.991c57.642,79.246 91.731,176.728 91.731,282.218c0,265.319 -215.083,480.402 -480.402,480.402c-265.318,0 -480.401,-215.083 -480.401,-480.402c0,-265.318 215.083,-480.401 480.401,-480.401c105.49,0 202.969,34.088 282.217,91.73l-359.027,358.901l-45.056,138.149Zm56.543,-629.925l0,-88.493c0,-35.312 30.084,-64.057 65.396,-64.057c35.313,0 65.397,28.745 65.397,64.057l0,88.522c-20.122,-2.953 -42.2,-4.636 -65.51,-4.636c-23.232,0 -45.161,1.673 -65.283,4.607Zm-348.188,196.794l-63.699,-63.212c-24.976,-24.976 -25.533,-63.714 -0.557,-88.69c24.977,-24.961 64.478,-24.991 89.483,0l63.069,63.507c-32.808,25.882 -62.45,55.558 -88.296,88.395Zm-196.527,390.644c-35.312,0 -64.057,-30.085 -64.057,-65.397c0,-35.312 28.745,-65.397 64.057,-65.397l88.41,0c-2.877,20.122 -4.525,41.632 -4.525,64.644c0,23.531 1.709,46.028 4.718,66.15l-88.603,0Zm197.125,259.621c25.743,32.586 55.234,62.043 87.849,87.753l-63.22,63.724c-12.495,12.481 -26.665,19.07 -43.064,19.07c-16.411,0 -32.81,-5.589 -45.305,-18.07c-24.976,-24.976 -24.976,-64.287 0,-89.264l63.74,-63.213Zm478.383,196.005l0,88.509c0,35.312 -30.084,64.057 -65.397,64.057c-35.312,0 -65.396,-28.745 -65.396,-64.057l0,-88.481c20.122,2.934 42.051,4.608 65.283,4.608c23.31,0 45.388,-1.683 65.51,-4.636Zm347.549,-196.137l63.933,63.345c24.976,24.977 25.268,62.954 0.292,87.931c-12.495,12.481 -28.306,18.736 -44.704,18.736c-16.412,0 -31.638,-6.255 -44.132,-18.736l-63.111,-63.573c32.567,-25.701 62.014,-55.141 87.722,-87.703Z" style="fill:#333;"/></g></g></svg>