<?xml version="1.0" encoding="UTF-8" standalone="no"?><!DOCTYPE svg PUBLIC "-//W3C//DTD SVG 1.1//EN" "http://www.w3.org/Graphics/SVG/1.1/DTD/svg11.dtd"><svg width="100%" height="100%" viewBox="0 0 512 512" version="1.1" xmlns="http://www.w3.org/2000/svg" xmlns:xlink="http://www.w3.org/1999/xlink" xml:space="preserve" xmlns:serif="http://www.serif.com/" style="fill-rule:evenodd;clip-rule:evenodd;stroke-linejoin:round;stroke-miterlimit:2;"><g id="table-delete" transform="matrix(1,0,0,1,4.33431e-13,16)"><g transform="matrix(1,0,0,1,-4.33431e-13,-16)"><path d="M413.936,94.653l-33.347,33.347l-44.589,0l0,44.589l-16,16l0,-60.589l-128,0l0,96l92.589,0l-16,16l-76.589,0l0,76.589l-16,16l0,-92.589l-128,0l0,96l124.589,0l-16,16l-108.589,0l0,98.306l10.283,0l-25.723,25.723c-2.615,-1.441 -5.038,-3.253 -7.187,-5.402c-6.002,-6.001 -9.373,-14.14 -9.373,-22.627l0,-353.347l397.936,0Zm-365.936,33.347l0,96l128,0l0,-96l-128,0Z" style="fill:#333;"/></g><g transform="matrix(1,0,0,1,-4.33431e-13,-16)"><path d="M460.589,48l-48,48l-396.589,0l0,-16c0,-8.487 3.371,-16.626 9.373,-22.627c6.001,-6.002 14.14,-9.373 22.627,-9.373l412.589,0Z" style="fill:#0081d5;"/></g><g transform="matrix(0.454545,0,0,0.454545,336,283.636)"><path d="M242.72,256l100.07,-100.07c12.28,-12.28 12.28,-32.19 0,-44.48l-22.24,-22.24c-12.28,-12.28 -32.19,-12.28 -44.48,0l-100.07,100.07l-100.07,-100.07c-12.28,-12.28 -32.19,-12.28 -44.48,0l-22.24,22.24c-12.28,12.28 -12.28,32.19 0,44.48l100.07,100.07l-100.07,100.07c-12.28,12.28 -12.28,32.19 0,44.48l22.24,22.24c12.28,12.28 32.2,12.28 44.48,0l100.07,-100.07l100.07,100.07c12.28,12.28 32.2,12.28 44.48,0l22.24,-22.24c12.28,-12.28 12.28,-32.19 0,-44.48l-100.07,-100.07Z" style="fill:#c33;fill-rule:nonzero;"/></g></g></svg>