<?xml version="1.0" encoding="UTF-8" standalone="no"?><!DOCTYPE svg PUBLIC "-//W3C//DTD SVG 1.1//EN" "http://www.w3.org/Graphics/SVG/1.1/DTD/svg11.dtd"><svg width="100%" height="100%" viewBox="0 0 512 512" version="1.1" xmlns="http://www.w3.org/2000/svg" xmlns:xlink="http://www.w3.org/1999/xlink" xml:space="preserve" xmlns:serif="http://www.serif.com/" style="fill-rule:evenodd;clip-rule:evenodd;stroke-linejoin:round;stroke-miterlimit:2;"><g id="row-below" transform="matrix(1,0,0,1,4.33431e-13,16)"><g transform="matrix(0.417399,0,0,0.417399,46.5707,26.0945)"><path d="M3.424,435.807c-20.333,0 -39.833,-8.077 -54.21,-22.455c-14.378,-14.377 -22.455,-33.877 -22.455,-54.21c0,-66.807 0,-163.189 0,-229.996c0,-20.333 8.077,-39.833 22.455,-54.21c14.377,-14.378 33.877,-22.455 54.21,-22.455c209.092,0 787.557,0 996.649,0c20.333,0 39.833,8.077 54.21,22.455c14.378,14.377 22.455,33.877 22.455,54.21c0,66.807 0,163.189 0,229.996c0,20.333 -8.077,39.833 -22.455,54.21c-14.377,14.378 -33.877,22.455 -54.21,22.455c-209.092,0 -787.557,0 -996.649,0Zm38.333,-306.661c-21.171,0 -38.333,17.162 -38.333,38.333l0,153.33c0,21.171 17.162,38.333 38.333,38.333l268.328,0l0,-229.996l-268.328,0Zm306.661,0l0,229.996l306.661,0l0,-229.996l-306.661,0Zm344.994,0l0,229.996l268.328,0c21.171,0 38.333,-17.162 38.333,-38.333l0,-153.33c0,-21.171 -17.162,-38.333 -38.333,-38.333l-268.328,0Z" style="fill:#333;"/></g><g transform="matrix(0.365345,0,0,0.365345,174.163,256.616)"><path d="M413.1,222.5l22.2,22.2c9.4,9.4 9.4,24.6 0,33.9l-194.3,194.4c-9.4,9.4 -24.6,9.4 -33.9,0l-194.4,-194.4c-9.4,-9.4 -9.4,-24.6 0,-33.9l22.2,-22.2c9.5,-9.5 25,-9.3 34.3,0.4l114.8,120.5l0,-287.4c0,-13.3 10.7,-24 24,-24l32,0c13.3,0 24,10.7 24,24l0,287.4l114.8,-120.5c9.3,-9.8 24.8,-10 34.3,-0.4Z" style="fill:#0081d5;fill-rule:nonzero;"/></g></g></svg>