<?xml version="1.0" encoding="UTF-8" standalone="no"?><!DOCTYPE svg PUBLIC "-//W3C//DTD SVG 1.1//EN" "http://www.w3.org/Graphics/SVG/1.1/DTD/svg11.dtd"><svg width="100%" height="100%" viewBox="0 0 512 512" version="1.1" xmlns="http://www.w3.org/2000/svg" xmlns:xlink="http://www.w3.org/1999/xlink" xml:space="preserve" xmlns:serif="http://www.serif.com/" style="fill-rule:evenodd;clip-rule:evenodd;stroke-linejoin:round;stroke-miterlimit:2;"><g id="delete-table-zone" transform="matrix(1,0,0,1,4.33431e-13,16)"><g transform="matrix(0.417399,0,0,0.417399,46.5707,26.0945)"><path d="M3.424,435.807c-20.333,0 -39.833,-8.077 -54.21,-22.455c-14.378,-14.377 -22.455,-33.877 -22.455,-54.21c0,-66.807 0,-163.189 0,-229.996c0,-20.333 8.077,-39.833 22.455,-54.21c14.377,-14.378 33.877,-22.455 54.21,-22.455c209.092,0 787.557,0 996.649,0c20.333,0 39.833,8.077 54.21,22.455c14.378,14.377 22.455,33.877 22.455,54.21c0,66.807 0,163.189 0,229.996c0,20.333 -8.077,39.833 -22.455,54.21c-14.377,14.378 -33.877,22.455 -54.21,22.455c-209.092,0 -787.557,0 -996.649,0Zm38.333,-306.661c-21.171,0 -38.333,17.162 -38.333,38.333l0,153.33c0,21.171 17.162,38.333 38.333,38.333l268.328,0l0,-229.996l-268.328,0Zm306.661,0l0,229.996l306.661,0l0,-229.996l-306.661,0Zm344.994,0l0,229.996l268.328,0c21.171,0 38.333,-17.162 38.333,-38.333l0,-153.33c0,-21.171 -17.162,-38.333 -38.333,-38.333l-268.328,0Z" style="fill:#333;"/></g><g transform="matrix(0.454545,0,0,0.454545,176,235.636)"><path d="M242.72,256l100.07,-100.07c12.28,-12.28 12.28,-32.19 0,-44.48l-22.24,-22.24c-12.28,-12.28 -32.19,-12.28 -44.48,0l-100.07,100.07l-100.07,-100.07c-12.28,-12.28 -32.19,-12.28 -44.48,0l-22.24,22.24c-12.28,12.28 -12.28,32.19 0,44.48l100.07,100.07l-100.07,100.07c-12.28,12.28 -12.28,32.19 0,44.48l22.24,22.24c12.28,12.28 32.2,12.28 44.48,0l100.07,-100.07l100.07,100.07c12.28,12.28 32.2,12.28 44.48,0l22.24,-22.24c12.28,-12.28 12.28,-32.19 0,-44.48l-100.07,-100.07Z" style="fill:#c33;fill-rule:nonzero;"/></g></g></svg>