<?xml version="1.0" encoding="UTF-8" standalone="no"?><!DOCTYPE svg PUBLIC "-//W3C//DTD SVG 1.1//EN" "http://www.w3.org/Graphics/SVG/1.1/DTD/svg11.dtd"><svg width="100%" height="100%" viewBox="0 0 512 512" version="1.1" xmlns="http://www.w3.org/2000/svg" xmlns:xlink="http://www.w3.org/1999/xlink" xml:space="preserve" xmlns:serif="http://www.serif.com/" style="fill-rule:evenodd;clip-rule:evenodd;stroke-linejoin:round;stroke-miterlimit:2;"><g id="table" transform="matrix(1,0,0,1,4.33431e-13,16)"><g transform="matrix(0.417399,0,0,0.417399,46.5707,58.0945)"><path d="M3.424,972.464c-20.333,0 -39.833,-8.077 -54.21,-22.455c-14.378,-14.377 -22.455,-33.877 -22.455,-54.21c0,-221.481 0,-846.545 0,-846.545l1149.98,0l0,846.545c0,20.333 -8.077,39.833 -22.455,54.21c-14.377,14.378 -33.877,22.455 -54.21,22.455c-209.092,0 -787.557,0 -996.649,0Zm689.988,-71.14l306.661,0l0,-235.521l-306.661,0l0,235.521Zm306.661,-273.854l0,-229.995l-306.661,0l0,229.995l306.661,0Zm-651.655,273.854l306.661,0l0,-235.521l-306.661,0l0,235.521Zm306.661,-273.854l0,-229.995l-306.661,0l0,229.995l306.661,0Zm-651.655,273.854l306.661,0l0,-235.521l-306.661,0l0,235.521Zm306.661,-273.854l0,-229.995l-306.661,0l0,229.995l306.661,0Zm-306.661,-498.324l0,229.996l306.661,0l0,-229.996l-306.661,0Zm344.994,0l0,229.996l306.661,0l0,-229.996l-306.661,0Zm344.994,0l0,229.996l306.661,0l0,-229.996l-306.661,0Z" style="fill:#333;"/></g><g transform="matrix(1,0,0,1,-4.31655e-13,16)"><path d="M496,48c0,-8.487 -3.371,-16.626 -9.373,-22.627c-6.001,-6.002 -14.14,-9.373 -22.627,-9.373l-416,0c-8.487,0 -16.626,3.371 -22.627,9.373c-6.002,6.001 -9.373,14.14 -9.373,22.627l0,16l480,0l0,-16Z" style="fill:#0081d5;"/></g></g></svg>