<?xml version="1.0" encoding="UTF-8" standalone="no"?><!DOCTYPE svg PUBLIC "-//W3C//DTD SVG 1.1//EN" "http://www.w3.org/Graphics/SVG/1.1/DTD/svg11.dtd"><svg width="100%" height="100%" viewBox="0 0 512 512" version="1.1" xmlns="http://www.w3.org/2000/svg" xmlns:xlink="http://www.w3.org/1999/xlink" xml:space="preserve" xmlns:serif="http://www.serif.com/" style="fill-rule:evenodd;clip-rule:evenodd;stroke-linecap:round;stroke-linejoin:round;stroke-miterlimit:1.5;"><g id="text-height"><g transform="matrix(-1.47654e-16,0.803792,-0.803792,-1.47654e-16,634.596,97.2293)"><g id="unerline" transform="matrix(1.3472,-9.65671e-16,2.45799e-16,1.65241,-143.261,-325.46)"><path d="M450.758,351.885c0,-3.852 -1.877,-7.546 -5.217,-10.27c-3.341,-2.723 -7.872,-4.253 -12.597,-4.253c-44.789,0 -161.708,0 -206.496,0c-4.725,0 -9.256,1.53 -12.597,4.253c-3.34,2.724 -5.217,6.418 -5.217,10.27c0,0.001 0,0.001 0,0.002c0,3.851 1.877,7.546 5.217,10.269c3.341,2.724 7.872,4.254 12.597,4.254c44.788,0 161.707,0 206.496,0c4.725,0 9.256,-1.53 12.597,-4.254c3.34,-2.723 5.217,-6.418 5.217,-10.269c0,-0.001 0,-0.001 0,-0.002Z" style="fill:#0081d5;"/></g><g transform="matrix(0.407568,0.407568,0.407568,-0.407568,114.045,256)"><path d="M16,160l0,-144l144,0" style="fill:none;stroke:#0081d5;stroke-width:86.34px;"/></g><g transform="matrix(-0.407568,0.407568,-0.407568,-0.407568,485.042,256)"><path d="M16,160l0,-144l144,0" style="fill:none;stroke:#0081d5;stroke-width:86.34px;"/></g></g><g transform="matrix(1.2329,0,0,1.2329,195.217,-27.5269)"><g transform="matrix(580.439,0,0,580.439,-162.195,424.629)"><path d="M0.307,0c-0.014,0 -0.025,-0.004 -0.031,-0.011c-0.008,-0.007 -0.011,-0.017 -0.011,-0.031l0,-0.551l-0.194,0c-0.014,0 -0.025,-0.003 -0.032,-0.01c-0.007,-0.007 -0.01,-0.018 -0.01,-0.032c0,-0.014 0.003,-0.024 0.01,-0.031c0.007,-0.007 0.018,-0.011 0.032,-0.011l0.472,0c0.014,0 0.024,0.004 0.031,0.011c0.007,0.007 0.011,0.017 0.011,0.031c0,0.014 -0.004,0.025 -0.011,0.032c-0.007,0.007 -0.017,0.01 -0.031,0.01l-0.194,0l0,0.551c0,0.013 -0.004,0.024 -0.011,0.031c-0.007,0.007 -0.017,0.011 -0.031,0.011Z" style="fill:#333;fill-rule:nonzero;"/></g></g></g></svg>