<?xml version="1.0" encoding="UTF-8" standalone="no"?><!DOCTYPE svg PUBLIC "-//W3C//DTD SVG 1.1//EN" "http://www.w3.org/Graphics/SVG/1.1/DTD/svg11.dtd"><svg width="100%" height="100%" viewBox="0 0 512 512" version="1.1" xmlns="http://www.w3.org/2000/svg" xmlns:xlink="http://www.w3.org/1999/xlink" xml:space="preserve" xmlns:serif="http://www.serif.com/" style="fill-rule:evenodd;clip-rule:evenodd;stroke-linejoin:round;stroke-miterlimit:2;"><g id="trash"><g transform="matrix(0.9375,0,0,0.9375,46.0001,16.0002)"><path d="M53.2,467c1.575,25.15 22.701,44.997 47.9,45l245.8,0c25.199,-0.003 46.325,-19.85 47.9,-45l21.2,-339l-384,0l21.2,339Z" style="fill:#333;fill-rule:nonzero;"/></g><g transform="matrix(0.9375,0,0,0.9375,46.0001,16.0002)"><path d="M432,32l-120,0l-9.4,-18.7c-4.055,-8.142 -12.404,-13.307 -21.5,-13.3l-114.3,0c-9.078,-0.035 -17.412,5.145 -21.4,13.3l-9.4,18.7l-120,0c-8.777,0 -16,7.223 -16,16l0,32c0,8.777 7.223,16 16,16l416,0c8.777,0 16,-7.223 16,-16l0,-32c0,-8.777 -7.223,-16 -16,-16Z" style="fill:#333;fill-rule:nonzero;"/></g></g></svg>