<?xml version="1.0" encoding="UTF-8" standalone="no"?><!DOCTYPE svg PUBLIC "-//W3C//DTD SVG 1.1//EN" "http://www.w3.org/Graphics/SVG/1.1/DTD/svg11.dtd"><svg width="100%" height="100%" viewBox="0 0 512 512" version="1.1" xmlns="http://www.w3.org/2000/svg" xmlns:xlink="http://www.w3.org/1999/xlink" xml:space="preserve" xmlns:serif="http://www.serif.com/" style="fill-rule:evenodd;clip-rule:evenodd;stroke-linejoin:round;stroke-miterlimit:2;"><g id="underline"><g id="unerline" transform="matrix(1.98245,0,0,1.54913,-397.607,-71.6184)"><path d="M450.758,351.886c0,-3.852 -1.196,-7.547 -3.324,-10.27c-2.129,-2.724 -5.015,-4.254 -8.025,-4.254l-219.426,0c-3.01,0 -5.897,1.53 -8.025,4.254c-2.128,2.723 -3.324,6.418 -3.324,10.27l0,0c0,3.852 1.196,7.546 3.324,10.27c2.128,2.724 5.015,4.254 8.025,4.254l219.426,0c3.01,0 5.896,-1.53 8.025,-4.254c2.128,-2.724 3.324,-6.418 3.324,-10.27l0,0Z" style="fill:#0081d5;"/></g><g id="bold" transform="matrix(5.10747,0,0,5.10747,-1747.75,-1985.78)"><g transform="matrix(103.602,0,0,103.602,352.638,462.174)"><path d="M0.323,0c-0.076,0 -0.133,-0.018 -0.169,-0.055c-0.037,-0.036 -0.055,-0.093 -0.055,-0.169l0,-0.412c0,-0.014 0.003,-0.024 0.01,-0.031c0.008,-0.007 0.018,-0.011 0.032,-0.011c0.014,0 0.024,0.004 0.031,0.011c0.007,0.007 0.011,0.017 0.011,0.031l0,0.412c0,0.036 0.004,0.064 0.013,0.084c0.008,0.02 0.023,0.035 0.043,0.043c0.02,0.009 0.048,0.013 0.084,0.013l0.12,0c0.036,0 0.064,-0.004 0.084,-0.013c0.02,-0.008 0.035,-0.023 0.043,-0.043c0.009,-0.02 0.013,-0.048 0.013,-0.084l0,-0.412c0,-0.014 0.003,-0.024 0.01,-0.031c0.007,-0.007 0.018,-0.011 0.032,-0.011c0.014,0 0.024,0.004 0.031,0.011c0.007,0.007 0.011,0.017 0.011,0.031l0,0.412c0,0.076 -0.018,0.133 -0.055,0.169c-0.036,0.037 -0.092,0.055 -0.169,0.055l-0.12,0Z" style="fill:#333;fill-rule:nonzero;"/></g></g></g></svg>