<?xml version="1.0" encoding="UTF-8" standalone="no"?><!DOCTYPE svg PUBLIC "-//W3C//DTD SVG 1.1//EN" "http://www.w3.org/Graphics/SVG/1.1/DTD/svg11.dtd"><svg width="100%" height="100%" viewBox="0 0 512 512" version="1.1" xmlns="http://www.w3.org/2000/svg" xmlns:xlink="http://www.w3.org/1999/xlink" xml:space="preserve" xmlns:serif="http://www.serif.com/" style="fill-rule:evenodd;clip-rule:evenodd;stroke-linejoin:round;stroke-miterlimit:2;"><g id="unordered-list" serif:id="unordered list"><g id="unerline" transform="matrix(1.32163,0,0,1.65241,-99.7377,-205.46)"><path d="M450.758,351.886c0,-8.022 -8.13,-14.524 -18.159,-14.524l-205.806,0c-10.029,0 -18.159,6.502 -18.159,14.524l0,0.001c0,8.021 8.129,14.523 18.158,14.523c44.925,0 160.883,0 205.808,0c10.029,0 18.158,-6.502 18.158,-14.523c0,0 0,-0.001 0,-0.001Z" style="fill:#333;"/></g><g id="unerline1" serif:id="unerline" transform="matrix(1.32163,0,0,1.65241,-99.7377,-445.46)"><path d="M450.758,351.886c0,-8.022 -8.13,-14.524 -18.159,-14.524l-205.806,0c-10.029,0 -18.159,6.502 -18.159,14.524l0,0c0,8.021 8.13,14.524 18.159,14.524l205.806,0c10.029,0 18.159,-6.503 18.159,-14.524l0,0Z" style="fill:#333;"/></g><g transform="matrix(1.08598,0,0,1.08598,-1.37576,2.83951)"><circle cx="67.566" cy="122.617" r="51.566" style="fill:#0081d5;"/></g><g transform="matrix(1.08598,0,0,1.08598,-1.37576,242.84)"><circle cx="67.566" cy="122.617" r="51.566" style="fill:#0081d5;"/></g></g></svg>