<?xml version="1.0" encoding="UTF-8" standalone="no"?><!DOCTYPE svg PUBLIC "-//W3C//DTD SVG 1.1//EN" "http://www.w3.org/Graphics/SVG/1.1/DTD/svg11.dtd"><svg width="100%" height="100%" viewBox="0 0 512 512" version="1.1" xmlns="http://www.w3.org/2000/svg" xmlns:xlink="http://www.w3.org/1999/xlink" xml:space="preserve" xmlns:serif="http://www.serif.com/" style="fill-rule:evenodd;clip-rule:evenodd;stroke-linejoin:round;stroke-miterlimit:2;"><g id="video"><g transform="matrix(0.833333,0,0,0.833333,16,42.6667)"><path d="M525.6,115l-103.2,83.4l0,115.2l103.2,83.4c21.2,14.6 50.4,-0.3 50.4,-25.8l0,-230.4c0,-25.4 -29.1,-40.4 -50.4,-25.8Z" style="fill:#333;fill-rule:nonzero;"/></g><path id="unerline" d="M336,128c0,-17.673 -14.327,-32 -32,-32l-256,0c-17.673,0 -32,14.327 -32,32l0,256c0,17.673 14.327,32 32,32l256,0c17.673,0 32,-14.327 32,-32l0,-256Zm-32,16c0,-4.243 -1.686,-8.313 -4.686,-11.314c-3.001,-3 -7.071,-4.686 -11.314,-4.686l-224,0c-4.243,0 -8.313,1.686 -11.314,4.686c-3,3.001 -4.686,7.071 -4.686,11.314c0,46.717 0,177.283 0,224c0,4.243 1.686,8.313 4.686,11.314c3.001,3 7.071,4.686 11.314,4.686l224,0c4.243,0 8.313,-1.686 11.314,-4.686c3,-3.001 4.686,-7.071 4.686,-11.314c0,-46.717 0,-177.283 0,-224Z" style="fill:#333;"/><g transform="matrix(1.0497e-16,1.71429,-1.24465,7.62129e-17,483.685,74.8063)"><path d="M97.033,205.933c1.579,-3.157 4.184,-5.042 6.967,-5.042c2.783,0 5.388,1.885 6.967,5.042c10.078,20.156 28.736,57.474 39.904,79.809c1.782,3.564 1.983,8.196 0.521,12.027c-1.462,3.832 -4.345,6.231 -7.488,6.231c-21.273,0 -58.535,0 -79.808,0c-3.143,0 -6.026,-2.399 -7.488,-6.231c-1.462,-3.831 -1.261,-8.463 0.521,-12.027c11.168,-22.335 29.826,-59.653 39.904,-79.809Z" style="fill:#0081d5;"/></g></g></svg>